# This file uses centimeters as units for non-parametric coordinates.

mtllib Locker.mtl
g default
v 0.000000 1.162506 0.030001
v 0.000000 1.200012 0.030001
v -0.500000 1.162506 0.030001
v -0.500000 1.200012 0.030001
v -0.500000 1.162506 -0.389999
v -0.500000 1.200012 -0.389999
v 0.000000 1.162506 -0.389999
v 0.000000 1.200012 -0.389999
v 0.000000 0.000000 0.030001
v 0.000000 0.037500 0.030001
v -0.500000 0.000000 0.030001
v -0.500000 0.037500 0.030001
v -0.500000 0.000000 -0.389999
v -0.500000 0.037500 -0.389999
v 0.000000 0.000000 -0.389999
v 0.000000 0.037500 -0.389999
v -0.500000 0.037500 0.000000
v -0.450000 0.037500 0.000000
v -0.500000 1.162506 0.000000
v -0.450000 1.162506 0.000000
v -0.500000 1.162506 -0.360004
v -0.450000 1.162506 -0.360004
v -0.500000 0.037500 -0.360004
v -0.450000 0.037500 -0.360004
v -0.500000 0.037500 0.000000
v -0.500000 0.037500 0.030001
v -0.500000 1.162506 0.000000
v -0.500000 1.162506 0.030001
v 0.000000 1.162506 0.000000
v 0.000000 1.162506 0.030001
v 0.000000 0.037500 0.000000
v 0.000000 0.037500 0.030001
v -0.500000 0.037500 -0.390003
v -0.500000 0.037500 -0.360004
v -0.500000 1.162506 -0.390003
v -0.500000 1.162506 -0.360004
v 0.000000 1.162506 -0.390003
v 0.000000 1.162506 -0.360004
v 0.000000 0.037500 -0.390003
v 0.000000 0.037500 -0.360004
vt 0.375000 0.000000
vt 0.625000 0.000000
vt 0.375000 0.250000
vt 0.625000 0.250000
vt 0.375000 0.500000
vt 0.625000 0.500000
vt 0.375000 0.750000
vt 0.625000 0.750000
vt 0.375000 1.000000
vt 0.625000 1.000000
vt 0.875000 0.000000
vt 0.875000 0.250000
vt 0.125000 0.000000
vt 0.125000 0.250000
vt 0.375000 0.000000
vt 0.625000 0.000000
vt 0.625000 0.250000
vt 0.375000 0.250000
vt 0.625000 0.500000
vt 0.375000 0.500000
vt 0.625000 0.750000
vt 0.375000 0.750000
vt 0.625000 1.000000
vt 0.375000 1.000000
vt 0.875000 0.000000
vt 0.875000 0.250000
vt 0.125000 0.000000
vt 0.125000 0.250000
vt 0.375000 0.000000
vt 0.625000 0.000000
vt 0.625000 0.250000
vt 0.375000 0.250000
vt 0.625000 0.500000
vt 0.375000 0.500000
vt 0.625000 0.750000
vt 0.375000 0.750000
vt 0.625000 1.000000
vt 0.375000 1.000000
vt 0.875000 0.000000
vt 0.875000 0.250000
vt 0.125000 0.000000
vt 0.125000 0.250000
vt 0.375000 0.000000
vt 0.625000 0.000000
vt 0.625000 0.250000
vt 0.375000 0.250000
vt 0.625000 0.500000
vt 0.375000 0.500000
vt 0.625000 0.750000
vt 0.375000 0.750000
vt 0.625000 1.000000
vt 0.375000 1.000000
vt 0.875000 0.000000
vt 0.875000 0.250000
vt 0.125000 0.000000
vt 0.125000 0.250000
vt 0.375000 0.000000
vt 0.625000 0.000000
vt 0.625000 0.250000
vt 0.375000 0.250000
vt 0.625000 0.500000
vt 0.375000 0.500000
vt 0.625000 0.750000
vt 0.375000 0.750000
vt 0.625000 1.000000
vt 0.375000 1.000000
vt 0.875000 0.000000
vt 0.875000 0.250000
vt 0.125000 0.000000
vt 0.125000 0.250000
vn 0.000000 0.000000 1.000000
vn 0.000000 0.000000 1.000000
vn 0.000000 0.000000 1.000000
vn 0.000000 0.000000 1.000000
vn -1.000000 0.000000 0.000000
vn -1.000000 0.000000 0.000000
vn -1.000000 0.000000 0.000000
vn -1.000000 0.000000 0.000000
vn 0.000000 0.000000 -1.000000
vn 0.000000 0.000000 -1.000000
vn 0.000000 0.000000 -1.000000
vn 0.000000 0.000000 -1.000000
vn 1.000000 0.000000 0.000000
vn 1.000000 0.000000 0.000000
vn 1.000000 0.000000 0.000000
vn 1.000000 0.000000 0.000000
vn 0.000000 1.000000 0.000000
vn 0.000000 1.000000 0.000000
vn 0.000000 1.000000 0.000000
vn 0.000000 1.000000 0.000000
vn 0.000000 -1.000000 0.000000
vn 0.000000 -1.000000 0.000000
vn 0.000000 -1.000000 0.000000
vn 0.000000 -1.000000 0.000000
vn 0.000000 0.000000 1.000000
vn 0.000000 0.000000 1.000000
vn 0.000000 0.000000 1.000000
vn 0.000000 0.000000 1.000000
vn -1.000000 0.000000 0.000000
vn -1.000000 0.000000 0.000000
vn -1.000000 0.000000 0.000000
vn -1.000000 0.000000 0.000000
vn 0.000000 0.000000 -1.000000
vn 0.000000 0.000000 -1.000000
vn 0.000000 0.000000 -1.000000
vn 0.000000 0.000000 -1.000000
vn 1.000000 0.000000 0.000000
vn 1.000000 0.000000 0.000000
vn 1.000000 0.000000 0.000000
vn 1.000000 0.000000 0.000000
vn 0.000000 1.000000 0.000000
vn 0.000000 1.000000 0.000000
vn 0.000000 1.000000 0.000000
vn 0.000000 1.000000 0.000000
vn 0.000000 -1.000000 0.000000
vn 0.000000 -1.000000 0.000000
vn 0.000000 -1.000000 0.000000
vn 0.000000 -1.000000 0.000000
vn 0.000000 0.000000 1.000000
vn 0.000000 0.000000 1.000000
vn 0.000000 0.000000 1.000000
vn 0.000000 0.000000 1.000000
vn 0.000000 1.000000 0.000000
vn 0.000000 1.000000 0.000000
vn 0.000000 1.000000 0.000000
vn 0.000000 1.000000 0.000000
vn 0.000000 0.000000 -1.000000
vn 0.000000 0.000000 -1.000000
vn 0.000000 0.000000 -1.000000
vn 0.000000 0.000000 -1.000000
vn 0.000000 -1.000000 0.000000
vn 0.000000 -1.000000 0.000000
vn 0.000000 -1.000000 0.000000
vn 0.000000 -1.000000 0.000000
vn 1.000000 0.000000 0.000000
vn 1.000000 0.000000 0.000000
vn 1.000000 0.000000 0.000000
vn 1.000000 0.000000 0.000000
vn -1.000000 0.000000 0.000000
vn -1.000000 0.000000 0.000000
vn -1.000000 0.000000 0.000000
vn -1.000000 0.000000 0.000000
vn -1.000000 0.000000 0.000000
vn -1.000000 0.000000 0.000000
vn -1.000000 0.000000 0.000000
vn -1.000000 0.000000 0.000000
vn 0.000000 1.000000 0.000000
vn 0.000000 1.000000 0.000000
vn 0.000000 1.000000 0.000000
vn 0.000000 1.000000 0.000000
vn 1.000000 0.000000 0.000000
vn 1.000000 0.000000 0.000000
vn 1.000000 0.000000 0.000000
vn 1.000000 0.000000 0.000000
vn 0.000000 -1.000000 0.000000
vn 0.000000 -1.000000 0.000000
vn 0.000000 -1.000000 0.000000
vn 0.000000 -1.000000 0.000000
vn 0.000000 0.000000 1.000000
vn 0.000000 0.000000 1.000000
vn 0.000000 0.000000 1.000000
vn 0.000000 0.000000 1.000000
vn 0.000000 0.000000 -1.000000
vn 0.000000 0.000000 -1.000000
vn 0.000000 0.000000 -1.000000
vn 0.000000 0.000000 -1.000000
vn -1.000000 0.000000 0.000000
vn -1.000000 0.000000 0.000000
vn -1.000000 0.000000 0.000000
vn -1.000000 0.000000 0.000000
vn 0.000000 1.000000 0.000000
vn 0.000000 1.000000 0.000000
vn 0.000000 1.000000 0.000000
vn 0.000000 1.000000 0.000000
vn 1.000000 0.000000 0.000000
vn 1.000000 0.000000 0.000000
vn 1.000000 0.000000 0.000000
vn 1.000000 0.000000 0.000000
vn 0.000000 -1.000000 0.000000
vn 0.000000 -1.000000 0.000000
vn 0.000000 -1.000000 0.000000
vn 0.000000 -1.000000 0.000000
vn 0.000000 0.000000 1.000000
vn 0.000000 0.000000 1.000000
vn 0.000000 0.000000 1.000000
vn 0.000000 0.000000 1.000000
vn 0.000000 0.000000 -1.000000
vn 0.000000 0.000000 -1.000000
vn 0.000000 0.000000 -1.000000
vn 0.000000 0.000000 -1.000000
s off
g Locker
usemtl initialShadingGroup
f 1/1/1 2/2/2 4/4/3 3/3/4
f 3/3/5 4/4/6 6/6/7 5/5/8
f 5/5/9 6/6/10 8/8/11 7/7/12
f 7/7/13 8/8/14 2/10/15 1/9/16
f 2/2/17 8/11/18 6/12/19 4/4/20
f 7/13/21 1/1/22 3/3/23 5/14/24
f 9/15/25 10/16/26 12/17/27 11/18/28
f 11/18/29 12/17/30 14/19/31 13/20/32
f 13/20/33 14/19/34 16/21/35 15/22/36
f 15/22/37 16/21/38 10/23/39 9/24/40
f 10/16/41 16/25/42 14/26/43 12/17/44
f 15/27/45 9/15/46 11/18/47 13/28/48
f 17/29/49 18/30/50 20/31/51 19/32/52
f 19/32/53 20/31/54 22/33/55 21/34/56
f 21/34/57 22/33/58 24/35/59 23/36/60
f 23/36/61 24/35/62 18/37/63 17/38/64
f 18/30/65 24/39/66 22/40/67 20/31/68
f 23/41/69 17/29/70 19/32/71 21/42/72
f 25/43/73 26/44/74 28/45/75 27/46/76
f 27/46/77 28/45/78 30/47/79 29/48/80
f 29/48/81 30/47/82 32/49/83 31/50/84
f 31/50/85 32/49/86 26/51/87 25/52/88
f 26/44/89 32/53/90 30/54/91 28/45/92
f 31/55/93 25/43/94 27/46/95 29/56/96
f 33/57/97 34/58/98 36/59/99 35/60/100
f 35/60/101 36/59/102 38/61/103 37/62/104
f 37/62/105 38/61/106 40/63/107 39/64/108
f 39/64/109 40/63/110 34/65/111 33/66/112
f 34/58/113 40/67/114 38/68/115 36/59/116
f 39/69/117 33/57/118 35/60/119 37/70/120
g default
v -0.049999 0.037498 0.000000
v 0.000000 0.037498 0.000000
v -0.049999 1.162498 0.000000
v 0.000000 1.162498 0.000000
v -0.049999 1.162498 -0.360001
v 0.000000 1.162498 -0.360001
v -0.049999 0.037498 -0.360001
v 0.000000 0.037498 -0.360001
v -0.049999 1.036594 0.000000
v 0.000000 1.036594 0.000000
v 0.000000 1.036594 -0.360001
v -0.049999 1.036594 -0.360001
v -0.049999 1.011902 0.000000
v 0.000000 1.011902 0.000000
v 0.000000 1.011902 -0.360001
v -0.049999 1.011902 -0.360001
v -0.049999 0.987484 0.000000
v 0.000000 0.987484 0.000000
v 0.000000 0.987484 -0.360001
v -0.049999 0.987484 -0.360001
v -0.049999 0.964300 0.000000
v 0.000000 0.964300 0.000000
v 0.000000 0.964302 -0.360001
v -0.049999 0.964302 -0.360001
v -0.049999 0.942205 0.000000
v 0.000000 0.942205 0.000000
v 0.000000 0.942207 -0.360001
v -0.049999 0.942207 -0.360001
v -0.049999 0.919605 0.000000
v 0.000000 0.919605 0.000000
v 0.000000 0.919605 -0.360001
v -0.049999 0.919605 -0.360001
v -0.049999 1.162498 -0.090538
v 0.000000 1.162498 -0.090538
v 0.000000 1.036594 -0.090538
v 0.000000 1.011902 -0.090538
v 0.000000 0.987484 -0.090538
v 0.000000 0.964300 -0.090538
v 0.000000 0.942205 -0.090538
v 0.000000 0.919605 -0.090538
v 0.000000 0.037498 -0.090538
v -0.049999 0.037498 -0.090538
v -0.049999 0.919605 -0.090538
v -0.049999 0.942205 -0.090538
v -0.049999 0.964300 -0.090538
v -0.049999 0.987484 -0.090538
v -0.049999 1.011902 -0.090538
v -0.049999 1.036594 -0.090538
v -0.049999 0.037498 -0.275484
v 0.000000 0.037498 -0.275484
v 0.000000 0.919605 -0.275484
v 0.000000 0.942207 -0.275484
v 0.000000 0.964302 -0.275484
v 0.000000 0.987484 -0.275484
v 0.000000 1.011902 -0.275484
v 0.000000 1.036594 -0.275484
v 0.000000 1.162498 -0.275484
v -0.049999 1.162498 -0.275484
v -0.049999 1.036594 -0.275484
v -0.049999 1.011902 -0.275484
v -0.049999 0.987484 -0.275484
v -0.049999 0.964302 -0.275484
v -0.049999 0.942207 -0.275484
v -0.049999 0.919605 -0.275484
vt 0.375000 0.000000
vt 0.625000 0.000000
vt 0.375000 0.250000
vt 0.625000 0.250000
vt 0.375000 0.500000
vt 0.625000 0.500000
vt 0.375000 0.750000
vt 0.625000 0.750000
vt 0.375000 1.000000
vt 0.625000 1.000000
vt 0.875000 0.000000
vt 0.875000 0.250000
vt 0.125000 0.000000
vt 0.125000 0.250000
vt 0.375000 0.222021
vt 0.625000 0.222021
vt 0.625000 0.527979
vt 0.875000 0.222021
vt 0.125000 0.222021
vt 0.375000 0.527979
vt 0.375000 0.216534
vt 0.625000 0.216534
vt 0.625000 0.533466
vt 0.875000 0.216534
vt 0.125000 0.216534
vt 0.375000 0.533466
vt 0.375000 0.211108
vt 0.625000 0.211108
vt 0.625000 0.538892
vt 0.875000 0.211108
vt 0.125000 0.211108
vt 0.375000 0.538892
vt 0.375000 0.205956
vt 0.625000 0.205956
vt 0.625000 0.544044
vt 0.875000 0.205956
vt 0.125000 0.205956
vt 0.375000 0.544044
vt 0.375000 0.201046
vt 0.625000 0.201046
vt 0.625000 0.548954
vt 0.875000 0.201046
vt 0.125000 0.201046
vt 0.375000 0.548954
vt 0.375000 0.196023
vt 0.625000 0.196023
vt 0.625000 0.553976
vt 0.875000 0.196024
vt 0.125000 0.196024
vt 0.375000 0.553976
vt 0.312126 0.250000
vt 0.375000 0.312873
vt 0.625000 0.312873
vt 0.687873 0.250000
vt 0.687873 0.222021
vt 0.687873 0.216534
vt 0.687873 0.211108
vt 0.687873 0.205956
vt 0.687873 0.201046
vt 0.687873 0.196023
vt 0.625000 0.937127
vt 0.687873 0.000000
vt 0.312126 0.000000
vt 0.375000 0.937127
vt 0.312126 0.196023
vt 0.312126 0.201046
vt 0.312126 0.205956
vt 0.312126 0.211108
vt 0.312126 0.216534
vt 0.312126 0.222021
vt 0.183692 0.000000
vt 0.375000 0.808692
vt 0.625000 0.808692
vt 0.816308 0.000000
vt 0.816308 0.196024
vt 0.816308 0.201046
vt 0.816308 0.205956
vt 0.816308 0.211108
vt 0.816308 0.216534
vt 0.816308 0.222021
vt 0.625000 0.441308
vt 0.816308 0.250000
vt 0.183692 0.250000
vt 0.375000 0.441308
vt 0.183692 0.222021
vt 0.183692 0.216534
vt 0.183692 0.211108
vt 0.183692 0.205956
vt 0.183692 0.201046
vt 0.183692 0.196024
vn 0.000000 0.000000 1.000000
vn 0.000000 0.000000 1.000000
vn 0.000000 0.000000 1.000000
vn 0.000000 0.000000 1.000000
vn 0.000000 1.000000 0.000000
vn 0.000000 1.000000 0.000000
vn 0.000000 1.000000 0.000000
vn 0.000000 1.000000 0.000000
vn 0.000000 0.000000 -1.000000
vn 0.000000 0.000000 -1.000000
vn 0.000000 0.000000 -1.000000
vn 0.000000 0.000000 -1.000000
vn 0.000000 -1.000000 0.000000
vn 0.000000 -1.000000 0.000000
vn 0.000000 -1.000000 0.000000
vn 0.000000 -1.000000 0.000000
vn 1.000000 0.000000 0.000000
vn 1.000000 0.000000 0.000000
vn 1.000000 0.000000 0.000000
vn 1.000000 0.000000 0.000000
vn -1.000000 0.000000 0.000000
vn -1.000000 0.000000 0.000000
vn -1.000000 0.000000 0.000000
vn -1.000000 0.000000 0.000000
vn 0.000000 0.000000 1.000000
vn 0.000000 0.000000 1.000000
vn 0.000000 0.000000 -1.000000
vn 0.000000 0.000000 -1.000000
vn 0.000000 0.000000 1.000000
vn 0.000000 0.000000 1.000000
vn 1.000000 0.000000 0.000000
vn 1.000000 0.000000 0.000000
vn 1.000000 0.000000 0.000000
vn 1.000000 0.000000 0.000000
vn 0.000000 0.000000 -1.000000
vn 0.000000 0.000000 -1.000000
vn -1.000000 0.000000 0.000000
vn -1.000000 0.000000 0.000000
vn -1.000000 0.000000 0.000000
vn -1.000000 0.000000 0.000000
vn 0.000000 0.000000 1.000000
vn 0.000000 0.000000 1.000000
vn 0.000000 0.000000 -1.000000
vn 0.000000 0.000000 -1.000000
vn 0.000000 0.000000 1.000000
vn 0.000000 0.000000 1.000000
vn 1.000000 0.000000 0.000000
vn 1.000000 0.000000 0.000000
vn 1.000000 0.000000 0.000000
vn 1.000000 0.000000 0.000000
vn 0.000000 0.000000 -1.000000
vn 0.000000 0.000000 -1.000000
vn -1.000000 0.000000 0.000000
vn -1.000000 0.000000 0.000000
vn -1.000000 0.000000 0.000000
vn -1.000000 0.000000 0.000000
vn 0.000000 0.000000 1.000000
vn 0.000000 0.000000 1.000000
vn 0.000000 0.000000 -1.000000
vn 0.000000 0.000000 -1.000000
vn 0.000000 0.000000 1.000000
vn 0.000000 0.000000 1.000000
vn 1.000000 0.000000 0.000000
vn 1.000000 0.000000 0.000000
vn 1.000000 0.000000 0.000000
vn 1.000000 0.000000 0.000000
vn 0.000000 0.000000 -1.000000
vn 0.000000 0.000000 -1.000000
vn -1.000000 0.000000 0.000000
vn -1.000000 0.000000 0.000000
vn -1.000000 0.000000 0.000000
vn -1.000000 0.000000 0.000000
vn 0.000000 1.000000 0.000000
vn 0.000000 1.000000 0.000000
vn 1.000000 0.000000 0.000000
vn 1.000000 0.000000 0.000000
vn 1.000000 0.000000 0.000000
vn 1.000000 0.000000 0.000000
vn 1.000000 0.000000 0.000000
vn 1.000000 0.000000 0.000000
vn 1.000000 0.000000 0.000000
vn 1.000000 0.000000 0.000000
vn 0.000000 -1.000000 0.000000
vn 0.000000 -1.000000 0.000000
vn -1.000000 0.000000 0.000000
vn -1.000000 0.000000 0.000000
vn -1.000000 0.000000 0.000000
vn -1.000000 0.000000 0.000000
vn -1.000000 0.000000 0.000000
vn -1.000000 0.000000 0.000000
vn -1.000000 0.000000 0.000000
vn -1.000000 0.000000 0.000000
vn 0.000000 -1.000000 0.000000
vn 0.000000 -1.000000 0.000000
vn 1.000000 0.000000 0.000000
vn 1.000000 0.000000 0.000000
vn 1.000000 0.000000 0.000000
vn 1.000000 0.000000 0.000000
vn 1.000000 0.000000 0.000000
vn 1.000000 0.000000 0.000000
vn 1.000000 0.000000 0.000000
vn 1.000000 0.000000 0.000000
vn 0.000000 1.000000 0.000000
vn 0.000000 1.000000 0.000000
vn -1.000000 0.000000 0.000000
vn -1.000000 0.000000 0.000000
vn -1.000000 0.000000 0.000000
vn -1.000000 0.000000 0.000000
vn -1.000000 0.000000 0.000000
vn -1.000000 0.000000 0.000000
vn -1.000000 0.000000 0.000000
vn -1.000000 0.000000 0.000000
vn 0.000000 -1.000000 -0.000010
vn 0.000000 -1.000000 -0.000010
vn 0.000000 -1.000000 -0.000010
vn 0.000000 -1.000000 -0.000010
vn 0.000000 0.000000 -1.000000
vn 0.000000 0.000000 -1.000000
vn 0.000000 0.000000 -1.000000
vn 0.000000 0.000000 -1.000000
vn 0.000000 1.000000 0.000000
vn 0.000000 1.000000 0.000000
vn 0.000000 1.000000 0.000000
vn 0.000000 1.000000 0.000000
vn 0.000000 0.000000 1.000000
vn 0.000000 0.000000 1.000000
vn 0.000000 0.000000 1.000000
vn 0.000000 0.000000 1.000000
vn 0.000000 -1.000000 0.000000
vn 0.000000 -1.000000 0.000000
vn 0.000000 -1.000000 0.000000
vn 0.000000 -1.000000 0.000000
vn 0.000000 0.000000 -1.000000
vn 0.000000 0.000000 -1.000000
vn 0.000000 0.000000 -1.000000
vn 0.000000 0.000000 -1.000000
vn 0.000000 1.000000 0.000010
vn 0.000000 1.000000 0.000010
vn 0.000000 1.000000 0.000010
vn 0.000000 1.000000 0.000010
vn 0.000000 0.000000 1.000000
vn 0.000000 0.000000 1.000000
vn 0.000000 0.000000 1.000000
vn 0.000000 0.000000 1.000000
vn 0.000000 -1.000000 0.000000
vn 0.000000 -1.000000 0.000000
vn 0.000000 -1.000000 0.000000
vn 0.000000 -1.000000 0.000000
vn 0.000000 0.000000 -1.000000
vn 0.000000 0.000000 -1.000000
vn 0.000000 0.000000 -1.000000
vn 0.000000 0.000000 -1.000000
vn 0.000000 1.000000 0.000000
vn 0.000000 1.000000 0.000000
vn 0.000000 1.000000 0.000000
vn 0.000000 1.000000 0.000000
vn 0.000000 0.000000 1.000000
vn 0.000000 0.000000 1.000000
vn 0.000000 0.000000 1.000000
vn 0.000000 0.000000 1.000000
s 1
g Locker Door
usemtl initialShadingGroup
f 49/85/121 50/86/122 44/74/123 43/73/124
s 2
f 73/122/125 74/123/126 97/151/127 98/154/128
s 3
f 45/75/129 46/76/130 51/87/131 52/90/132
s 4
f 89/142/133 90/143/134 81/131/135 82/134/136
s 5
f 74/124/137 75/125/138 96/150/139 97/152/140
s 6
f 98/153/141 99/155/142 88/140/143 73/121/144
s 1
f 53/91/145 54/92/146 50/86/122 49/85/121
s 3
f 52/90/132 51/87/131 55/93/147 56/96/148
s 1
f 57/97/149 58/98/150 54/92/146 53/91/145
s 5
f 76/126/151 77/127/152 94/148/153 95/149/154
s 3
f 56/96/148 55/93/147 59/99/155 60/102/156
s 6
f 100/156/157 101/157/158 86/138/159 87/139/160
s 1
f 61/103/161 62/104/162 58/98/150 57/97/149
s 3
f 60/102/156 59/99/155 63/105/163 64/108/164
s 1
f 65/109/165 66/110/166 62/104/162 61/103/161
s 5
f 78/128/167 79/129/168 92/146/169 93/147/170
s 3
f 64/108/164 63/105/163 67/111/171 68/114/172
s 6
f 102/158/173 103/159/174 84/136/175 85/137/176
s 1
f 69/115/177 70/116/178 66/110/166 65/109/165
s 3
f 68/114/172 67/111/171 71/117/179 72/120/180
s 1
f 70/116/178 69/115/177 41/71/181 42/72/182
s 5
f 90/144/183 91/145/184 80/130/185 81/132/186
s 3
f 72/120/180 71/117/179 48/78/187 47/77/188
s 6
f 82/133/189 83/135/190 104/160/191 89/141/192
s 2
f 43/73/193 44/74/194 74/123/126 73/122/125
s 5
f 50/86/195 75/125/138 74/124/137 44/74/196
f 54/92/197 76/126/151 75/125/138 50/86/195
f 58/98/198 77/127/152 76/126/151 54/92/197
f 62/104/199 78/128/167 77/127/152 58/98/198
f 66/110/200 79/129/168 78/128/167 62/104/199
f 70/116/201 80/130/185 79/129/168 66/110/200
f 80/130/185 70/116/201 42/72/202 81/132/186
s 4
f 82/134/136 81/131/135 42/80/203 41/79/204
s 6
f 41/71/205 69/115/206 83/135/190 82/133/189
f 84/136/175 83/135/190 69/115/206 65/109/207
f 85/137/176 84/136/175 65/109/207 61/103/208
f 86/138/159 85/137/176 61/103/208 57/97/209
f 87/139/160 86/138/159 57/97/209 53/91/210
f 88/140/143 87/139/160 53/91/210 49/85/211
f 73/121/144 88/140/143 49/85/211 43/73/212
s 4
f 47/77/213 48/78/214 90/143/134 89/142/133
s 5
f 48/81/215 71/118/216 91/145/184 90/144/183
f 92/146/169 91/145/184 71/118/216 67/112/217
f 93/147/170 92/146/169 67/112/217 63/106/218
f 94/148/153 93/147/170 63/106/218 59/100/219
f 95/149/154 94/148/153 59/100/219 55/94/220
f 96/150/139 95/149/154 55/94/220 51/88/221
f 97/152/140 96/150/139 51/88/221 46/82/222
s 2
f 98/154/128 97/151/127 46/76/223 45/75/224
s 6
f 52/89/225 99/155/142 98/153/141 45/84/226
f 56/95/227 100/156/157 99/155/142 52/89/225
f 60/101/228 101/157/158 100/156/157 56/95/227
f 64/107/229 102/158/173 101/157/158 60/101/228
f 68/113/230 103/159/174 102/158/173 64/107/229
f 72/119/231 104/160/191 103/159/174 68/113/230
f 104/160/191 72/119/231 47/83/232 89/141/192
s off
f 92/146/233 79/129/234 84/136/235 103/159/236
f 79/129/237 80/130/238 83/135/239 84/136/240
f 80/130/241 91/145/242 104/160/243 83/135/244
f 91/145/245 92/146/246 103/159/247 104/160/248
f 94/148/249 77/127/250 86/138/251 101/157/252
f 77/127/253 78/128/254 85/137/255 86/138/256
f 78/128/257 93/147/258 102/158/259 85/137/260
f 93/147/261 94/148/262 101/157/263 102/158/264
f 96/150/265 75/125/266 88/140/267 99/155/268
f 75/125/269 76/126/270 87/139/271 88/140/272
f 76/126/273 95/149/274 100/156/275 87/139/276
f 95/149/277 96/150/278 99/155/279 100/156/280
