# Exported from ProBuilder
# http://www.procore3d.com/probuilder
# 5/9/2018 12:56:05 PM

mtllib ./SlantedWall.mtl
o SlantedWall

g Wall
v 4.6 0.0999999 4.5
v 4.4 0.0999999 4.5
v 4.6 3.1 4.5
v 4.4 3.1 4.5
v 4.4 0.0999999 4.5
v 1.4 0.0999999 -4.5
v 4.4 3.1 4.5
v 1.4 3.1 -4.5
v 1.4 0.0999999 -4.5
v 1.6 0.0999999 -4.5
v 1.4 3.1 -4.5
v 1.6 3.1 -4.5
v 1.6 0.0999999 -4.5
v 4.6 0.0999999 4.5
v 1.6 3.1 -4.5
v 4.6 3.1 4.5
v 4.6 3.1 4.5
v 4.4 3.1 4.5
v 1.6 3.1 -4.5
v 1.4 3.1 -4.5
v 1.6 0.0999999 -4.5
v 1.4 0.0999999 -4.5
v 4.6 0.0999999 4.5
v 4.4 0.0999999 4.5

vn 0 0 1
vn 0 0 1
vn 0 0 1
vn 0 0 1
vn -0.9486833 0 0.3162278
vn -0.9486833 0 0.3162278
vn -0.9486833 0 0.3162278
vn -0.9486833 0 0.3162278
vn 0 0 -1
vn 0 0 -1
vn 0 0 -1
vn 0 0 -1
vn 0.9486833 0 -0.3162278
vn 0.9486833 0 -0.3162278
vn 0.9486833 0 -0.3162278
vn 0.9486833 0 -0.3162278
vn 0 1 0
vn 0 0.9999999 0
vn 0 1 0
vn 0 1 0
vn 0 -0.9999999 0
vn 0 -0.9999999 0
vn 0 -1 0
vn 0 -0.9999999 0

vt 0.2 -3
vt 1.192093E-07 -3
vt 0.2 -4.470348E-08
vt 1.192093E-07 -4.470348E-08
vt 3.769729E-08 -3
vt -9.486834 -3
vt 3.769729E-08 -4.470348E-08
vt -9.486834 -4.470348E-08
vt 3 -3
vt 2.8 -3
vt 3 -4.470348E-08
vt 2.8 -4.470348E-08
vt 9.423588 -3
vt -0.06324555 -3
vt 9.423588 -4.470348E-08
vt -0.06324555 -4.470348E-08
vt -0.2 0
vt -1.192093E-07 0
vt 2.8 -9
vt 3 -9
vt -2.8 -9
vt -3 -9
vt 0.2 0
vt 1.192093E-07 0

g Wall
usemtl _defaultMat
f 3/3/3 4/4/4 2/2/2 1/1/1
f 7/7/7 8/8/8 6/6/6 5/5/5
f 11/11/11 12/12/12 10/10/10 9/9/9
f 15/15/15 16/16/16 14/14/14 13/13/13
f 19/19/19 20/20/20 18/18/18 17/17/17
f 23/23/23 24/24/24 22/22/22 21/21/21

